0
SECTION
2
HEADER
9
$PDMODE
70
34
9
$PDSIZE
40
0.0
0
ENDSEC
0
SECTION
2
ENTITIES
0
POLYLINE
8
0
70
1
62
0
66
1
0
VERTEX
8
0
10
297859.07
20
4028108.15
0
VERTEX
8
0
10
297861.76
20
4028099.42
0
VERTEX
8
0
10
297847
20
4028094.88
0
VERTEX
8
0
10
297843.86
20
4028104.94
0
VERTEX
8
0
10
297856.9
20
4028108.98
0
VERTEX
8
0
10
297857
20
4028109.02
0
VERTEX
8
0
10
297857.11
20
4028109.05
0
VERTEX
8
0
10
297857.22
20
4028109.08
0
VERTEX
8
0
10
297857.34
20
4028109.1
0
VERTEX
8
0
10
297857.45
20
4028109.11
0
VERTEX
8
0
10
297857.64
20
4028109.12
0
VERTEX
8
0
10
297857.88
20
4028109.09
0
VERTEX
8
0
10
297858
20
4028109.06
0
VERTEX
8
0
10
297858.17
20
4028109
0
VERTEX
8
0
10
297858.32
20
4028108.94
0
VERTEX
8
0
10
297858.45
20
4028108.86
0
VERTEX
8
0
10
297858.58
20
4028108.77
0
VERTEX
8
0
10
297858.72
20
4028108.65
0
VERTEX
8
0
10
297858.87
20
4028108.49
0
VERTEX
8
0
10
297858.95
20
4028108.37
0
VERTEX
8
0
10
297859.02
20
4028108.25
0
SEQEND
0
TEXT
8
Texto
62
2
10
297859.07
20
4028108.15
40
0.4
50
0.0
1
 V0
72
0
73
1
11
297859.07
21
4028108.15
0
POINT
8
Puntos
62
1
10
297859.07
20
4028108.15
30
0.0
0
TEXT
8
Texto
62
2
10
297861.76
20
4028099.42
40
0.4
50
0.0
1
 V1
72
0
73
1
11
297861.76
21
4028099.42
0
POINT
8
Puntos
62
1
10
297861.76
20
4028099.42
30
0.0
0
TEXT
8
Texto
62
2
10
297847
20
4028094.88
40
0.4
50
0.0
1
 V2
72
0
73
1
11
297847
21
4028094.88
0
POINT
8
Puntos
62
1
10
297847
20
4028094.88
30
0.0
0
TEXT
8
Texto
62
2
10
297843.86
20
4028104.94
40
0.4
50
0.0
1
 V3
72
0
73
1
11
297843.86
21
4028104.94
0
POINT
8
Puntos
62
1
10
297843.86
20
4028104.94
30
0.0
0
TEXT
8
Texto
62
2
10
297856.9
20
4028108.98
40
0.4
50
0.0
1
 V4
72
0
73
1
11
297856.9
21
4028108.98
0
POINT
8
Puntos
62
1
10
297856.9
20
4028108.98
30
0.0
0
TEXT
8
Texto
62
2
10
297857
20
4028109.02
40
0.4
50
0.0
1
 V5
72
0
73
1
11
297857
21
4028109.02
0
POINT
8
Puntos
62
1
10
297857
20
4028109.02
30
0.0
0
TEXT
8
Texto
62
2
10
297857.11
20
4028109.05
40
0.4
50
0.0
1
 V6
72
0
73
1
11
297857.11
21
4028109.05
0
POINT
8
Puntos
62
1
10
297857.11
20
4028109.05
30
0.0
0
TEXT
8
Texto
62
2
10
297857.22
20
4028109.08
40
0.4
50
0.0
1
 V7
72
0
73
1
11
297857.22
21
4028109.08
0
POINT
8
Puntos
62
1
10
297857.22
20
4028109.08
30
0.0
0
TEXT
8
Texto
62
2
10
297857.34
20
4028109.1
40
0.4
50
0.0
1
 V8
72
0
73
1
11
297857.34
21
4028109.1
0
POINT
8
Puntos
62
1
10
297857.34
20
4028109.1
30
0.0
0
TEXT
8
Texto
62
2
10
297857.45
20
4028109.11
40
0.4
50
0.0
1
 V9
72
0
73
1
11
297857.45
21
4028109.11
0
POINT
8
Puntos
62
1
10
297857.45
20
4028109.11
30
0.0
0
TEXT
8
Texto
62
2
10
297857.64
20
4028109.12
40
0.4
50
0.0
1
 V10
72
0
73
1
11
297857.64
21
4028109.12
0
POINT
8
Puntos
62
1
10
297857.64
20
4028109.12
30
0.0
0
TEXT
8
Texto
62
2
10
297857.88
20
4028109.09
40
0.4
50
0.0
1
 V11
72
0
73
1
11
297857.88
21
4028109.09
0
POINT
8
Puntos
62
1
10
297857.88
20
4028109.09
30
0.0
0
TEXT
8
Texto
62
2
10
297858
20
4028109.06
40
0.4
50
0.0
1
 V12
72
0
73
1
11
297858
21
4028109.06
0
POINT
8
Puntos
62
1
10
297858
20
4028109.06
30
0.0
0
TEXT
8
Texto
62
2
10
297858.17
20
4028109
40
0.4
50
0.0
1
 V13
72
0
73
1
11
297858.17
21
4028109
0
POINT
8
Puntos
62
1
10
297858.17
20
4028109
30
0.0
0
TEXT
8
Texto
62
2
10
297858.32
20
4028108.94
40
0.4
50
0.0
1
 V14
72
0
73
1
11
297858.32
21
4028108.94
0
POINT
8
Puntos
62
1
10
297858.32
20
4028108.94
30
0.0
0
TEXT
8
Texto
62
2
10
297858.45
20
4028108.86
40
0.4
50
0.0
1
 V15
72
0
73
1
11
297858.45
21
4028108.86
0
POINT
8
Puntos
62
1
10
297858.45
20
4028108.86
30
0.0
0
TEXT
8
Texto
62
2
10
297858.58
20
4028108.77
40
0.4
50
0.0
1
 V16
72
0
73
1
11
297858.58
21
4028108.77
0
POINT
8
Puntos
62
1
10
297858.58
20
4028108.77
30
0.0
0
TEXT
8
Texto
62
2
10
297858.72
20
4028108.65
40
0.4
50
0.0
1
 V17
72
0
73
1
11
297858.72
21
4028108.65
0
POINT
8
Puntos
62
1
10
297858.72
20
4028108.65
30
0.0
0
TEXT
8
Texto
62
2
10
297858.87
20
4028108.49
40
0.4
50
0.0
1
 V18
72
0
73
1
11
297858.87
21
4028108.49
0
POINT
8
Puntos
62
1
10
297858.87
20
4028108.49
30
0.0
0
TEXT
8
Texto
62
2
10
297858.95
20
4028108.37
40
0.4
50
0.0
1
 V19
72
0
73
1
11
297858.95
21
4028108.37
0
POINT
8
Puntos
62
1
10
297858.95
20
4028108.37
30
0.0
0
TEXT
8
Texto
62
2
10
297859.02
20
4028108.25
40
0.4
50
0.0
1
 V20
72
0
73
1
11
297859.02
21
4028108.25
0
POINT
8
Puntos
62
1
10
297859.02
20
4028108.25
30
0.0
0
TEXT
8
Texto
62
2
10
297852.8
20
4028102.17
40
2
50
0.0
1
8081401TF9288S
72
1
73
1
11
297852.8
21
4028102.17
0
ENDSEC
0
EOF
